<?xml version="1.0" encoding="UTF-8"?><svg id="a" xmlns="http://www.w3.org/2000/svg" viewBox="0 0 56 56"><path d="M.16,14.57V2.18C.68,.81,1.59,0,3.15,0,19.71,.01,36.26,0,52.82,0c1.84,0,2.99,1.14,2.99,2.97,0,3.59,0,7.17,0,10.76,0,1.79-1.15,2.96-2.94,2.99-.54,.01-1.08,0-1.68,0,0,.61,0,1.17,0,1.73,0,.18,.02,.35,.03,.57,.43-.06,.82-.1,1.21-.16,1.83-.3,3.36,.97,3.38,2.82,0,.72,0,1.45,0,2.17-.02,1.61-1.23,2.8-2.84,2.78-.57,0-1.14-.11-1.72-.16v21.79c.7,0,1.35-.04,2,0,1.47,.1,2.54,1.25,2.57,2.71,.01,.67,.01,1.34,0,2.01-.02,.8-.34,1.49-.97,1.98-.36,.28-.8,.46-1.2,.69H2.33c-1.08-.37-1.8-1.1-2.17-2.17v-3.04c.57-1.7,1.8-2.34,3.52-2.22,.35,.03,.7,0,1.1,0v-.74c0-2.44-.08-4.89,.03-7.33,.06-1.28-.24-2.09-1.48-2.58-.79-.31-.87-.88-.43-1.65,.54-.94,1.1-1.87,1.62-2.82,.15-.27,.25-.61,.25-.91,.02-4.96,.01-9.92,0-14.89,0-.17-.02-.35-.04-.56-.58,0-1.12,.01-1.66,0-1.18-.03-2.09-.52-2.64-1.59-.1-.19-.18-.37-.28-.56Zm25.02,15.11c-.37,0-.67,0-.97,0-2.33-.06-4.27-1.68-4.47-3.99-.18-2.07-.1-4.16-.09-6.24,0-.5,.33-.83,.86-.88,.3-.03,.61-.04,.94-.06v-1.74h-5.52c0,.24,0,.43,0,.63,0,2.12,.02,4.24-.01,6.36,0,.39-.12,.83-.3,1.17-1.02,1.9-2.08,3.77-3.11,5.66-.08,.15-.11,.43-.03,.55,.26,.4,.26,.78,.03,1.17-.37,.66-.76,1.31-1.14,1.97-.95,1.64-1.9,3.29-2.85,4.93-.42,.73-.8,.83-1.57,.47-.08-.04-.16-.05-.23-.08v8.58H23.1c-.25-.16-.39-.26-.53-.35-2.32-1.54-3.63-3.69-3.81-6.47-.08-1.24-.06-2.5-.06-3.75,0-1.19,.25-1.44,1.42-1.44,5.25,0,10.51,0,15.76,0,.13,0,.25,0,.38,0,.64,.03,.95,.32,1.01,.96,.03,.28,0,.57,0,.87,.16,.02,.25,.03,.33,.04,2.04,.17,3.52,2.02,3.34,4.06-.14,1.61-1.59,3.45-3.87,3.33-.82-.04-1.49,.06-1.89,.86-.06,.12-.19,.22-.3,.31-.62,.52-1.25,1.04-1.88,1.56h16.25V26.22c-2.59-.7-10.85-1.39-12.87-1.09-.46,3.2-2.37,4.67-5.6,4.57,0,.87,0,1.69,0,2.52-.01,.81-.35,1.16-1.15,1.17-1.07,.01-2.14,0-3.21,0-.94,0-1.25-.33-1.26-1.29,0-.79,0-1.58,0-2.43Zm2.82-14.86c8.2,0,16.41,0,24.61,0,1.07,0,1.35-.28,1.35-1.34,0-3.42,0-6.84,0-10.27,0-1.04-.32-1.35-1.37-1.35-16.41,0-32.82,0-49.22,0-1.04,0-1.35,.32-1.35,1.37,0,3.39,0,6.77,0,10.16,0,1.18,.25,1.43,1.42,1.43,8.19,0,16.37,0,24.56,0Zm-7.4,23.25c0,1,0,1.94,0,2.88,.03,2.64,1.75,5.01,4.23,5.94,1.35,.51,2.74,.42,4.13,.39,2.63-.07,4.61-1.29,5.76-3.66,.39-.82,.54-1.79,.65-2.71,.11-.94,.02-1.9,.02-2.84h-14.8Zm7.4,12.04c-8.24,0-16.48,0-24.73,0-.91,0-1.24,.33-1.25,1.24,0,.31,0,.62,0,.92,0,1.27,.26,1.53,1.52,1.53,16.3,0,32.61,0,48.91,0,.14,0,.29,0,.43,0,.71-.04,1.05-.38,1.08-1.09,.02-.42,0-.83,0-1.25,0-1.05-.3-1.35-1.36-1.35-8.21,0-16.41,0-24.62,0Zm-6.45-29.65c0,1.61-.06,3.18,.02,4.75,.08,1.58,1.18,2.59,2.77,2.61,2.44,.04,4.89,.04,7.33,0,1.59-.03,2.64-1.05,2.77-2.62,.07-.79,.03-1.59,.04-2.39,0-.77,0-1.55,0-2.35h-12.93Zm-14.83-3.71v12.58c.46-.91,1.05-1.03,1.79-.59,.92-1.61,1.82-3.17,2.7-4.74,.08-.14,.06-.35,.06-.53,0-2.06,0-4.13,0-6.19v-.53H6.7Zm42.57,.02h-14.74v1.73q1.62,.16,1.86,1.84c4.35,.4,8.59-.57,12.88-1.05v-2.52Zm-7.35,5.4v1.1c.17,.04,.31,.08,.45,.1,3.4,.45,6.81,.89,10.21,1.34,.96,.13,1.36-.21,1.37-1.17,0-.54,0-1.09,0-1.63-.01-.91-.38-1.27-1.28-1.16-2.37,.29-4.73,.61-7.1,.92-1.22,.16-2.43,.33-3.66,.5ZM8.08,30.7l-3.23,5.6,2.39,1.37,3.23-5.59-2.39-1.38Zm15.3-12.21h9.18v-1.72h-9.18v1.72Zm-10.21-1.74c0,2.1-.04,4.14,.02,6.18,.03,.98-.19,1.82-.71,2.66-.83,1.33-1.57,2.71-2.36,4.11l.55,.3c1.12-2.01,2.22-3.98,3.3-5.96,.09-.16,.11-.38,.11-.57,0-2.08,0-4.16,0-6.24,0-.16-.02-.31-.03-.47h-.87Zm23.75,26.82c1.24,.09,2.15-.64,2.16-1.79,.01-1.05-.76-1.84-1.7-1.81l-.46,3.6Zm3.08-20.42v-.83h-3.62v.83h3.62Zm-12.88,6.54v1.8h1.73v-1.8h-1.73Z"/><path d="M33.54,8.33c.02,3.04-2.47,5.57-5.47,5.59-3.13,.01-5.62-2.42-5.65-5.51-.03-3.07,2.47-5.62,5.55-5.63,3.03-.02,5.56,2.5,5.57,5.56Zm-1.89,.02c-.1-2.24-1.75-3.76-3.89-3.67-1.91,.08-3.51,1.77-3.44,3.65h2.32c-.14-.43-.27-.84-.41-1.25-.24-.76-.05-1.28,.54-1.48,.54-.17,1,.15,1.25,.89,.17,.51,.32,1.03,.52,1.54,.05,.13,.23,.3,.35,.3,.9,.03,1.8,.01,2.74,.01Zm-.54,1.9h-6.29c.78,1.19,1.82,1.79,3.15,1.79,1.32,0,2.38-.59,3.14-1.79Z"/><path d="M44.69,12.07c-1.77,0-3.55,0-5.32,0-.86,0-1.18-.32-1.18-1.18,0-1.7,0-3.4,0-5.11,0-.82,.32-1.15,1.15-1.16,3.55-.01,7.1-.01,10.65,0,.85,0,1.19,.34,1.2,1.19,.01,1.68,.01,3.37,0,5.05,0,.88-.35,1.2-1.23,1.2-1.76,0-3.51,0-5.27,0Zm-4.62-1.9h9.19v-3.62h-9.19v3.62Z"/><path d="M8.49,4.64c2.05-.01,3.72,1.67,3.72,3.72,0,2.02-1.66,3.69-3.68,3.71-2.06,.01-3.72-1.63-3.74-3.69-.02-2.04,1.64-3.72,3.7-3.73Zm-1.82,3.69c-.01,1,.79,1.84,1.79,1.87,.99,.03,1.89-.85,1.89-1.85,0-.99-.84-1.82-1.84-1.83-1.01,0-1.83,.8-1.84,1.81Z"/><path d="M15.95,9.26c.31,0,.62-.03,.92,0,.54,.06,.89,.42,.9,.91,.01,.51-.28,.89-.84,.94-.66,.05-1.34,.05-2,0-.57-.05-.87-.43-.85-.93,.01-.48,.36-.85,.9-.91,.32-.03,.65,0,.97,0Z"/><path d="M15.93,5.56c.31,0,.62-.02,.92,0,.56,.04,.92,.42,.92,.94,0,.51-.31,.88-.87,.91-.65,.04-1.3,.04-1.95,0-.55-.03-.87-.41-.87-.91,0-.48,.36-.88,.88-.93,.32-.03,.65,0,.97,0h0Z"/><path d="M28.04,50.99c5.7,0,11.41,0,17.11,0,.91,0,1.38,.32,1.39,.94,.01,.62-.48,.96-1.37,.96-11.46,0-22.93,0-34.39,0-.05,0-.11,0-.16,0-.76-.02-1.22-.39-1.2-.97,.01-.58,.47-.93,1.23-.93,5.8,0,11.59,0,17.39,0Z"/><path d="M5.71,52.92c-.37-.03-.75-.04-1.13-.1-.45-.07-.69-.4-.71-.83-.02-.46,.21-.87,.67-.91,.78-.07,1.58-.07,2.36,0,.46,.04,.68,.44,.65,.92-.03,.45-.26,.75-.71,.83-.37,.06-.75,.07-1.14,.1Z"/><path d="M50.28,51c.31,0,.62-.03,.92,0,.53,.06,.89,.45,.9,.92,0,.47-.33,.89-.87,.93-.68,.05-1.37,.03-2.05-.02-.5-.04-.77-.38-.78-.88-.01-.51,.26-.83,.75-.91,.37-.07,.75-.05,1.13-.07v.03Z"/></svg>