<?xml version="1.0" encoding="UTF-8"?><svg id="a" xmlns="http://www.w3.org/2000/svg" viewBox="0 0 56 56"><path d="M46,7h-2.42l.67-3h-10.35C33.43,1.72,31.41,0,29,0h-8C18.59,0,16.57,1.72,16.1,4H6.14c-1.73,0-3.14,1.41-3.14,3.14,0,1.42,.98,2.67,2.37,3.03,6.43,1.7,6.96,16.29,6.63,21.77l-.06,1.06h4.06v2h-3.72l-4.84,14.38c-.25,.95-.22,1.93,.05,2.84v.03c.09,.28,.2,.55,.33,.81,.03,.06,.06,.12,.09,.18,.11,.21,.24,.42,.39,.61,.05,.06,.09,.12,.14,.19,.15,.18,.3,.35,.47,.51,.06,.06,.12,.12,.19,.18,.2,.17,.41,.34,.63,.48,.04,.02,.08,.04,.11,.06,.22,.13,.44,.24,.68,.34,.05,.02,.09,.04,.14,.06,.26,.1,.53,.18,.81,.23,.06,.01,.11,.02,.17,.03,.29,.05,.59,.08,.9,.08h24.9c.3,0,.6-.03,.9-.08,.06,0,.11-.02,.17-.03,.28-.06,.55-.13,.81-.23,.05-.02,.1-.04,.15-.06,.23-.1,.46-.21,.67-.34,.04-.02,.08-.04,.12-.07,.22-.14,.43-.3,.63-.47,.07-.06,.13-.12,.2-.18,.16-.15,.31-.32,.45-.49,.06-.07,.11-.14,.16-.21,.14-.19,.26-.39,.37-.59,.04-.07,.07-.13,.1-.2,.12-.25,.23-.51,.31-.78,0-.03,.01-.06,.02-.09,.08-.28,.14-.56,.17-.85,0-.02,0-.04,.01-.06,0,0,0,0,0-.01,.06-.63,0-1.28-.16-1.93l-4.81-14.32h-3.72v-2h3.8l4-18h2.46c.41,0,.74,.33,.74,.74v9.26c0,2.21,1.79,4,4,4s4-1.79,4-4V14c0-3.86-3.14-7-7-7ZM21,2h8c1.3,0,2.42,.84,2.83,2h-13.66c.41-1.16,1.52-2,2.83-2ZM12.55,54c-.23,0-.45-.03-.67-.08-.05-.01-.11-.02-.16-.04-.21-.05-.42-.12-.61-.22-.02,0-.04-.02-.06-.03-.18-.09-.35-.21-.52-.33-.03-.03-.07-.05-.1-.08-.17-.14-.33-.3-.47-.48-.02-.03-.04-.06-.06-.08-.12-.16-.22-.33-.3-.5-.02-.05-.05-.09-.07-.14,0,0,0-.02-.01-.03h30.93s0,.03-.01,.04c-.02,.04-.04,.08-.06,.12-.09,.18-.19,.35-.31,.52-.02,.02-.03,.05-.05,.07-.14,.18-.3,.34-.47,.49-.03,.03-.06,.05-.1,.08-.16,.13-.34,.24-.52,.34-.02,0-.03,.02-.05,.03-.19,.09-.4,.16-.61,.22-.05,.01-.1,.03-.16,.04-.22,.05-.44,.08-.67,.08H12.55Zm23.73-17l4.34,12.89s0,.08,.02,.11H9.35s0-.03,0-.05l4.36-12.95h22.56Zm-4.28-2h-14v-2h14v2Zm4.2-4H14.04c.13-4.38,.06-20.59-8.16-22.76-.53-.14-.88-.58-.88-1.1,0-.63,.51-1.14,1.14-1.14H41.75l-.22,1h-2.53c-2.21,0-4,1.79-4,4s1.79,4,4,4h.75l-3.55,16Zm14.8-6c0,1.1-.9,2-2,2s-2-.9-2-2V15.74c0-1.51-1.23-2.74-2.74-2.74h-5.26c-1.1,0-2-.9-2-2s.9-2,2-2h7c2.76,0,5,2.24,5,5v11Z"/><path d="M14.93,39.68l-2.69,8c-.18,.52,.1,1.09,.63,1.27,.11,.03,.21,.05,.32,.05,.42,0,.81-.26,.95-.68l2.69-8c.18-.52-.1-1.09-.63-1.27-.53-.17-1.09,.11-1.27,.63Z"/><path d="M35.87,48.31c.14,.42,.53,.68,.95,.68,.1,0,.21-.02,.32-.05,.52-.18,.81-.74,.63-1.27l-2.69-7.99c-.18-.52-.74-.8-1.27-.63-.52,.18-.81,.74-.63,1.27l2.69,7.99Z"/><path d="M36.23,17.02c-.54-.12-1.07,.22-1.19,.76l-2.22,10c-.12,.54,.22,1.07,.76,1.19,.07,.02,.15,.02,.22,.02,.46,0,.87-.32,.97-.78l2.22-10c.12-.54-.22-1.07-.76-1.19Z"/><path d="M14.83,8.01c-.55,.09-.91,.61-.82,1.15l3.22,19c.08,.49,.51,.83,.99,.83,.06,0,.11,0,.17-.01,.55-.09,.91-.61,.82-1.15l-3.22-19c-.09-.54-.61-.9-1.15-.82Z"/><path d="M22,49c.55,0,1-.45,1-1v-8c0-.55-.45-1-1-1s-1,.45-1,1v8c0,.55,.45,1,1,1Z"/><path d="M29,49c.55,0,1-.45,1-1v-8c0-.55-.45-1-1-1s-1,.45-1,1v8c0,.55,.45,1,1,1Z"/><path d="M23,8c-.55,0-1,.45-1,1V28c0,.55,.45,1,1,1s1-.45,1-1V9c0-.55-.45-1-1-1Z"/><path d="M29,8c-.55,0-1,.45-1,1V28c0,.55,.45,1,1,1s1-.45,1-1V9c0-.55-.45-1-1-1Z"/></svg>