<?xml version="1.0" encoding="UTF-8"?><svg id="a" xmlns="http://www.w3.org/2000/svg" viewBox="0 0 56 56"><path d="M41.64,39.13c0,6.38-5.19,11.57-11.57,11.57v1.64c7.29,0,13.21-5.93,13.21-13.21h-1.64Z"/><path d="M47.79,11.42h-10.17v-3.8L9.53,3.92l.03,7.49H.76v5.49H7.16c-2.08,2.04-3.73,4.5-4.83,7.2h-.01l-.2,.53-.42,1.11h.04c-.65,2.07-.98,4.22-.98,6.41v6.97c0,9.02,7.34,16.36,16.36,16.36h12.95c9.02,0,16.36-7.34,16.36-16.36v-6.97c0-2.19-.33-4.34-.98-6.41h.04l-.42-1.11-.2-.53h-.01c-1.1-2.71-2.75-5.16-4.83-7.2h7.77c1.5,0,2.71,1.22,2.71,2.71v14.6h1.64v-14.6c0-2.4-1.95-4.35-4.35-4.35H2.4v-2.21H15.45v-1.64h-4.26l-.02-5.62,24.81,3.26v2.36h-4.26v1.64h16.06c3.62,0,6.57,2.95,6.57,6.57v14.6h1.64v-14.6c0-4.52-3.68-8.21-8.21-8.21ZM9.61,16.91h27.96c2.37,1.95,4.25,4.42,5.5,7.2h-10.24v1.64h10.89c.71,2.06,1.07,4.21,1.07,6.41v6.97c0,8.12-6.6,14.72-14.72,14.72h-12.95c-8.12,0-14.72-6.6-14.72-14.72v-6.97c0-2.2,.36-4.35,1.07-6.41H30.64v-1.64H4.11c1.25-2.78,3.13-5.25,5.5-7.2Z"/><rect x="10.09" y="20.87" width="9.8" height="1.64"/><rect x="10.09" y="27.43" width="9.8" height="1.64"/><rect x="10.09" y="30.71" width="9.8" height="1.64"/><rect x="10.09" y="34" width="9.8" height="1.64"/></svg>