<?xml version="1.0" encoding="UTF-8"?><svg id="a" xmlns="http://www.w3.org/2000/svg" viewBox="0 0 56 56"><path d="M16.25,55.87c-.74-.18-1.49-.3-2.2-.54-4.48-1.54-7.07-4.69-7.78-9.35-.3-1.93,.03-3.83,.76-5.64,1.4-3.51,2.82-7.01,4.23-10.52,.16-.41,.38-.75,.89-.74,.51,.01,.88,.44,.77,.95-.04,.21-.13,.42-.21,.62-1.46,3.66-3.03,7.28-4.36,10.99-1.88,5.25,1.39,11.04,6.83,12.3,.84,.2,1.72,.28,2.58,.29,6.24,.02,12.48,.02,18.72,0,3.02,0,5.59-1.06,7.59-3.36,.06-.07,.12-.14,.18-.2,.42-.42,.88-.47,1.24-.13,.34,.32,.37,.81,0,1.21-.6,.63-1.2,1.27-1.88,1.81-1.55,1.23-3.33,1.95-5.3,2.21-.1,.01-.2,.07-.3,.1H16.25Z"/><path d="M27.18,24.12c1.61-2.19,3.18-4.32,4.76-6.45,.13-.17,.26-.36,.43-.48,.33-.24,.69-.22,.99,.05,.27,.25,.4,.56,.21,.93-.07,.14-.16,.29-.25,.42-1.68,2.28-3.35,4.55-5.03,6.83-.69,.93-1.51,.93-2.21,0-3.98-5.36-7.96-10.71-11.92-16.08-.27-.36-.54-.52-.99-.49-.52,.04-1.05,0-1.67,0,.1,.18,.16,.32,.24,.44,.78,1.18,1.6,2.33,2.34,3.53,1.68,2.71,2.25,5.66,1.84,8.8-.22,1.65-.82,3.18-1.48,4.69-.21,.49-.64,.68-1.05,.52-.46-.17-.66-.63-.47-1.17,.24-.66,.52-1.31,.76-1.98,1.32-3.81,.78-7.37-1.44-10.71-.82-1.24-1.66-2.46-2.51-3.69-.32-.46-.51-.93-.23-1.47,.28-.54,.77-.66,1.34-.64,.54,.02,1.07,0,1.72,0-.39-.53-.72-.98-1.05-1.42-.89-1.19-1.79-2.38-2.65-3.59-.2-.28-.37-.65-.38-.98-.02-.65,.52-1.09,1.24-1.09,11.59,0,23.19,0,34.78,0,.52,0,.93,.18,1.15,.65,.23,.47,.13,.91-.18,1.32-1.12,1.51-2.24,3.03-3.36,4.55-.11,.16-.22,.32-.38,.56,.66,0,1.23,0,1.8,0,.51,0,.93,.15,1.19,.61,.28,.48,.15,.93-.14,1.37-1.04,1.55-2.07,3.1-3.1,4.66-.1,.15-.18,.31-.32,.56,.61-.27,1.13-.53,1.67-.75,2.53-1.01,5.18-.46,6.94,1.44,.92,.99,1.48,2.18,1.87,3.46,.62,2.01,.86,4.03,.2,6.09-.41,1.28-1.13,2.38-1.97,3.42-.48,.59-.96,1.18-1.43,1.78-1.24,1.55-1.78,3.33-1.75,5.3,.01,.9,.14,1.81-.38,2.65-.08,.13,.04,.41,.11,.61,.48,1.4,1.06,2.77,1.42,4.2,.41,1.62,.27,3.28-.15,4.89-.13,.49-.54,.78-.95,.7-.48-.09-.73-.46-.66-1.02,.05-.41,.15-.82,.22-1.23,.29-1.81-.04-3.53-.72-5.2-2.1-5.22-4.2-10.43-6.29-15.65-1.85-4.62-1.38-8.99,1.4-13.12,.67-1,1.35-2,2.1-3.1-.8,0-1.48-.02-2.15,.02-.15,0-.32,.21-.43,.36-1.24,1.67-2.48,3.35-3.71,5.03-.1,.13-.19,.27-.3,.39-.35,.37-.82,.44-1.16,.14-.38-.32-.4-.74-.14-1.13,.36-.54,.76-1.06,1.15-1.58,.66-.89,1.31-1.78,1.97-2.67,.11-.15,.21-.32,.36-.53H15.88c3.78,5.09,7.52,10.13,11.3,15.22ZM10.61,1.8c.46,.62,.84,1.19,1.29,1.71,.15,.17,.44,.31,.66,.32,.91,.04,1.81,.01,2.72,.01,8.78,0,17.55,0,26.33,0,.2,0,.49,0,.59-.13,.49-.59,.93-1.23,1.43-1.91H10.61ZM42.86,29.5c.89-1.99,2.32-3.47,3.54-5.1,.34-.45,.62-1,.75-1.54,.33-1.29-.08-2.51-.59-3.68-.47-1.07-1.08-1.29-2.14-.81-1.7,.76-2.93,2.04-3.81,3.65-.28,.51-.36,1.02-.1,1.6,.34,.76,.6,1.55,.91,2.32,.46,1.16,.93,2.31,1.44,3.56ZM13.38,5.53c.4,.54,.71,1.01,1.08,1.44,.12,.14,.36,.24,.54,.24,8.09,.01,16.18,.01,24.26,0,.15,0,.36-.02,.44-.12,.39-.48,.75-.99,1.17-1.56H13.38Zm31.53,29.09h.1c.03-.22,.06-.43,.08-.65,.09-1.28,.38-2.53,1.05-3.61,.67-1.07,1.45-2.07,2.23-3.07,.73-.95,1.49-1.88,1.84-3.05,.79-2.64,.21-5.1-1.18-7.38-.9-1.48-2.3-2.19-4.05-2.02-1.88,.18-3.4,1.16-4.77,2.39-.04,.04-.1,.08-.1,.12-.11,.84-.21,1.68-.31,2.52l.17,.03c.1-.12,.2-.25,.31-.37,.95-1.11,2.04-2.06,3.39-2.66,1.99-.88,3.5-.33,4.42,1.65,.17,.36,.3,.74,.42,1.11,.59,1.93,.66,3.82-.62,5.54-.51,.68-1.06,1.34-1.59,2-1.04,1.29-1.96,2.65-2.41,4.27-.04,.15-.11,.34-.06,.47,.35,.91,.72,1.8,1.08,2.7Z"/><path d="M17.82,34.11h.72c7.2,0,14.41,0,21.61,0,1.13,0,1.37,.16,1.79,1.2,.9,2.27,1.89,4.51,2.69,6.81,1.62,4.65-1.49,9.76-6.35,10.58-.57,.1-1.15,.15-1.73,.15-6.28,.01-12.55,0-18.83,0-2.78,0-5.1-.99-6.8-3.23-1.88-2.48-2.24-5.21-1.11-8.1,.85-2.17,1.74-4.33,2.6-6.5,.25-.64,.71-.93,1.38-.92,.58,0,1.16-.03,1.74,.01,.4,.03,.57-.14,.71-.49,.9-2.29,1.82-4.57,2.74-6.85,.04-.1,.08-.2,.12-.3,.25-.55,.66-.76,1.12-.57,.47,.2,.63,.61,.41,1.18-.53,1.35-1.07,2.69-1.61,4.03-.39,.97-.77,1.94-1.19,2.99Zm-2.49,1.69c-.31,0-.55,.03-.78,0-.53-.08-.75,.16-.93,.64-.71,1.86-1.47,3.7-2.22,5.54-.45,1.13-.64,2.28-.51,3.5,.34,3.06,3.14,5.7,6.22,5.71,6.66,.03,13.32,.01,19.97,0,1.05,0,2.04-.3,2.95-.83,2.93-1.7,4.08-5.04,2.83-8.26-.74-1.9-1.54-3.79-2.27-5.69-.18-.46-.4-.61-.9-.61-7.24,.02-14.48,.02-21.72,0-.64,0-.94,.17-1.18,.78-.89,2.35-1.88,4.66-2.75,7.02-.53,1.44-.05,2.69,1.05,3.73,.67,.64,1.5,.81,2.38,.91,.54,.07,.78,.41,.74,.89-.04,.45-.4,.75-.91,.75-3.34,0-5.95-3.46-4.88-6.62,.78-2.31,1.77-4.55,2.66-6.82,.07-.18,.14-.36,.23-.62Z"/><path d="M26.49,15.32c0-.44,.39-.82,.84-.81,.45,0,.8,.38,.79,.84-.01,.44-.36,.78-.79,.79-.45,0-.84-.37-.84-.81Z"/><path d="M31.91,15.31c.01,.44-.37,.83-.82,.83-.44,0-.79-.33-.81-.77-.02-.47,.32-.84,.77-.86,.45-.01,.85,.36,.86,.8Z"/><path d="M30.01,17.94c0,.46-.37,.81-.83,.81-.44,0-.79-.35-.81-.78-.02-.43,.37-.84,.81-.84,.45,0,.83,.37,.83,.82Z"/><path d="M27.34,21.35c-.44,0-.84-.38-.84-.81,0-.42,.35-.79,.78-.81,.47-.02,.84,.31,.85,.77,.01,.46-.34,.84-.79,.85Z"/><path d="M26.26,17.94c0,.45-.38,.81-.84,.81-.44,0-.78-.34-.79-.78-.01-.46,.34-.84,.79-.84,.45,0,.84,.38,.84,.82Z"/><path d="M19.8,9.63c.44,0,.81,.4,.8,.85-.01,.46-.39,.81-.85,.78-.44-.02-.78-.38-.78-.81,0-.45,.39-.84,.83-.83Z"/><path d="M24.39,15.31c.01,.44-.38,.82-.83,.83-.44,0-.79-.33-.81-.77-.02-.46,.33-.84,.78-.85,.45-.01,.85,.36,.86,.8Z"/><path d="M31.91,10.48c-.01,.44-.42,.8-.86,.78-.47-.02-.79-.38-.77-.86,.02-.43,.39-.78,.81-.78,.42,0,.83,.43,.82,.85Z"/><path d="M35.65,10.44c.01,.47-.33,.83-.8,.83-.44,0-.84-.38-.84-.81,0-.4,.39-.8,.79-.82,.43-.03,.83,.36,.84,.8Z"/><path d="M25.45,12.05c.44,.01,.82,.42,.8,.85-.02,.44-.44,.82-.87,.79-.44-.03-.76-.38-.76-.82,0-.47,.37-.83,.82-.82Z"/><path d="M29.19,12.06c.46,0,.82,.37,.81,.83,0,.43-.36,.79-.79,.81-.43,.02-.84-.38-.85-.81,0-.43,.39-.83,.83-.83Z"/><path d="M32.98,12.06c.44,.01,.81,.41,.79,.86-.02,.42-.4,.79-.81,.79-.45,0-.82-.38-.81-.84,0-.45,.38-.82,.83-.81Z"/><path d="M27.32,11.27c-.44,0-.83-.39-.82-.83,0-.43,.42-.83,.85-.81,.43,.02,.77,.37,.78,.81,0,.47-.34,.83-.81,.83Z"/><path d="M24.38,10.48c-.01,.44-.41,.81-.86,.79-.47-.02-.8-.38-.78-.85,.02-.42,.4-.78,.81-.78,.42,0,.83,.42,.82,.84Z"/><path d="M22.47,12.87c0,.46-.37,.84-.81,.83-.43,0-.83-.42-.82-.85,.01-.41,.4-.79,.81-.8,.46-.01,.82,.35,.82,.82Z"/></svg>