<?xml version="1.0" encoding="UTF-8"?><svg id="a" xmlns="http://www.w3.org/2000/svg" viewBox="0 0 56 56"><path d="M50.24,15.02h-1.85v-6.49c0-3.58-2.91-6.49-6.49-6.49h-4.63v-.93c0-.51-.42-.93-.93-.93s-.93,.42-.93,.93v.93h-8.34c-3.58,0-6.49,2.91-6.49,6.49v.93h-.93c-.51,0-.93,.42-.93,.93v2.35c0,.25,.1,.51,.3,.68l5.26,4.85v31.96c0,1.2,.78,2.22,1.85,2.61v2.03c0,.51,.42,.93,.93,.93s.93-.42,.93-.93v-1.85h7.41v1.85c0,.51,.42,.93,.93,.93s.93-.42,.93-.93v-1.85h6.49v1.85c0,.51,.42,.93,.93,.93s.93-.42,.93-.93v-1.85c1.53,0,2.78-1.25,2.78-2.78v-2.78h2.78c2.56,0,4.63-2.07,4.63-4.63V20.59c0-3.07-2.49-5.56-5.56-5.56Zm-24.4,2.17l-5.26-4.85v-1.02h14.83v9.27h-9.27v-2.71c0-.25-.1-.51-.3-.68Zm20.69,33.05c0,.51-.42,.93-.93,.93H27.07c-.51,0-.93-.42-.93-.93V22.44h9.27v19.46h-6.49c-.51,0-.93,.42-.93,.93s.42,.93,.93,.93h14.83c.51,0,.93-.42,.93-.93s-.42-.93-.93-.93h-6.49V22.44h9.27v27.81Zm0-29.66h-9.27V11.32h9.27v9.27Zm0-11.12H22.44v-.93c0-2.56,2.07-4.63,4.63-4.63h14.83c2.56,0,4.63,2.07,4.63,4.63v.93Zm7.41,33.37c0,1.53-1.25,2.78-2.78,2.78h-2.78V16.88h1.85c2.04,0,3.71,1.67,3.71,3.71v22.24Z"/><path d="M6.68,16.88c1.53,0,2.78-1.25,2.78-2.78v-.93c0-.51-.42-.93-.93-.93s-.93,.42-.93,.93v.93c0,.51-.42,.93-.93,.93-1.53,0-2.78,1.25-2.78,2.78s1.25,2.78,2.78,2.78c.51,0,.93,.42,.93,.93s-.42,.93-.93,.93c-1.53,0-2.78,1.25-2.78,2.78v.93c0,.51,.42,.93,.93,.93s.93-.42,.93-.93v-.93c0-.51,.42-.93,.93-.93,1.53,0,2.78-1.25,2.78-2.78s-1.25-2.78-2.78-2.78c-.51,0-.93-.42-.93-.93s.42-.93,.93-.93Z"/><path d="M8.54,6.68c-.51,0-.93,.42-.93,.93v1.85c0,.51,.42,.93,.93,.93s.93-.42,.93-.93v-1.85c0-.51-.42-.93-.93-.93Z"/><path d="M14.1,16.88c1.53,0,2.78-1.25,2.78-2.78v-.93c0-.51-.42-.93-.93-.93s-.93,.42-.93,.93v.93c0,.51-.42,.93-.93,.93-1.53,0-2.78,1.25-2.78,2.78s1.25,2.78,2.78,2.78c.51,0,.93,.42,.93,.93s-.42,.93-.93,.93c-1.53,0-2.78,1.25-2.78,2.78v.93c0,.51,.42,.93,.93,.93s.93-.42,.93-.93v-.93c0-.51,.42-.93,.93-.93,1.53,0,2.78-1.25,2.78-2.78s-1.25-2.78-2.78-2.78c-.51,0-.93-.42-.93-.93s.42-.93,.93-.93Z"/><path d="M15.95,6.68c-.51,0-.93,.42-.93,.93v1.85c0,.51,.42,.93,.93,.93s.93-.42,.93-.93v-1.85c0-.51-.42-.93-.93-.93Z"/><path d="M11.69,37.27h-.37v.13c0-.17-.68-.2-1.11-.2-2.6,0-4.54,2.88-4.54,6.52,0,2.78,1.3,5.26,3.15,6.15h.02c.49,.24,1.01,.36,1.53,.36,2.6,0,4.63-2.98,4.63-6.62,.02-2.92-1.32-5.42-3.31-6.35Zm-2.57,6.88c-.02,.06-.06,.12-.08,.19-.1,.23-.21,.48-.3,.71,0,.01-.01,.03-.01,.05-.08,.22-.16,.44-.23,.66-.02,.06-.03,.13-.06,.19-.07,.24-.13,.49-.17,.74v.02c-.42-.81-.65-1.85-.65-2.95,0-2.5,1.27-4.62,2.78-4.62,.05,0,.08,0,.13,.01h0c.02,.28,.03,.54,.02,.8,0,.06,0,.13-.01,.19-.02,.25-.05,.52-.1,.76-.2,.88-.59,1.73-1.01,2.62-.1,.21-.2,.43-.3,.65Zm.95,4.21v-.02c-.03-.19-.05-.35-.05-.51,0-1.18,.53-2.32,1.1-3.53,.44-.95,.9-1.93,1.14-3,.06-.24,.09-.5,.13-.75,.5,.85,.81,1.99,.81,3.22-.02,2.7-1.53,4.94-3.13,4.6Z"/><path d="M10.39,28.93C.92,28.93,.19,31.06,.19,31.71v17.61c0,3.58,2.91,6.49,6.49,6.49h7.41c3.58,0,6.49-2.91,6.49-6.49V31.71c0-.65-.73-2.78-10.2-2.78Zm-7.83,2.77c.13-.05,.28-.09,.45-.14,.01,0,.03-.01,.05-.01,.17-.05,.37-.09,.58-.15,.01,0,.02,0,.03-.01,.22-.05,.45-.09,.71-.14,.05-.01,.08-.01,.13-.02,.25-.05,.52-.09,.81-.13,.05,0,.09-.01,.13-.02,.29-.03,.6-.08,.93-.1h.06c.34-.03,.7-.06,1.07-.08,.07,0,.14-.01,.21-.01,.37-.02,.75-.05,1.15-.06,.07,0,.15,0,.22-.01,.43-.01,.86-.02,1.32-.02s.89,.01,1.32,.02c.07,0,.15,0,.22,.01,.39,.01,.78,.03,1.15,.06,.07,0,.14,.01,.21,.01,.37,.02,.73,.06,1.07,.08h.06c.32,.03,.64,.07,.93,.1,.05,0,.09,.01,.13,.02,.29,.03,.56,.08,.81,.13,.05,.01,.08,.01,.13,.02,.25,.05,.49,.09,.71,.14,.01,0,.02,.01,.03,.01,.21,.05,.41,.09,.58,.15,.01,0,.03,.01,.05,.01,.17,.05,.32,.09,.45,.14,.01,0,.02,.01,.03,.01-1.14,.42-3.83,.93-7.87,.93s-6.73-.51-7.87-.93c.01,0,.02-.01,.03-.01Zm16.17,17.62c0,2.56-2.07,4.63-4.63,4.63H6.68c-2.56,0-4.63-2.07-4.63-4.63v-15.85c1.43,.56,3.93,1.02,8.34,1.02s6.92-.46,8.34-1.02v15.85Z"/><circle cx="43.76" cy="48.39" r=".93"/><circle cx="40.05" cy="46.54" r=".93"/><circle cx="36.34" cy="48.39" r=".93"/><circle cx="32.63" cy="46.54" r=".93"/><circle cx="28.93" cy="48.39" r=".93"/></svg>