<?xml version="1.0" encoding="UTF-8"?><svg id="a" xmlns="http://www.w3.org/2000/svg" viewBox="0 0 56 56"><path d="M11.19,56c-.68-.33-1.44-.55-2.03-1-1.34-1.03-1.8-2.49-1.53-4.13,.74-4.54,1.5-9.07,2.26-13.61,.33-2.01,.68-4.01,.99-6.03,.04-.25-.04-.58-.19-.77-1.12-1.46-2.27-2.9-3.41-4.34-.61-.77-.45-1.31,.5-1.63,1.38-.46,2.74-.96,4.14-1.37,.67-.2,1.38-.27,2.08-.33,.6-.05,1.2-.01,1.87-.01-.1-.25-.17-.45-.25-.65C12.94,15.6,10.26,9.08,7.57,2.56c-.32-.77-.29-1.45,.29-2.07C8.24,.1,8.72,0,9.26,0,17.17,0,25.08,0,32.99,0c2.15,0,4.3,0,6.45,0,1.68,0,2.43,1.1,1.79,2.64-2.66,6.47-5.33,12.94-8,19.41-.09,.22-.17,.43-.28,.72,.87,0,1.68,0,2.5,0,.86,0,1.09,.2,1.23,1.04,.25,1.52,.51,3.05,.77,4.57,.02,.12,.07,.24,.08,.28,.95-.19,1.86-.46,2.79-.56,4.26-.47,8.38,2.51,9.24,6.72,.22,1.07,.22,2.21,.23,3.31,.02,1.45,.12,2.91-.27,4.35-1.04,3.8-4.31,6.39-8.27,6.51-.09,0-.18,.01-.33,.02,.09,.6,.17,1.16,.26,1.73,.41,2.55-.88,4.53-3.38,5.17-.05,.01-.09,.05-.14,.08H11.19Zm2.53-31.52l-3.22,19.33c.33,0,.56,0,.79,0,1.05-.01,1.97-.42,2.89-.88,2.31-1.17,4.64-1.15,6.98-.03,.56,.27,1.11,.58,1.7,.73,1.7,.44,3.3,.14,4.83-.73,1.52-.87,3.2-1.02,4.87-.67,.94,.2,1.85,.63,2.74,1.03,.97,.44,1.95,.62,3.04,.52l-3.22-19.33c-.83,0-1.61,.02-2.39,0-.37-.01-.53,.12-.67,.46-.71,1.77-1.45,3.53-2.17,5.3-.34,.84-.94,1.27-1.85,1.27-2.42,0-4.85,0-7.27,0-.85,0-1.45-.4-1.78-1.19-.37-.89-.74-1.78-1.1-2.67-.23-.58-.08-1.05,.38-1.24,.48-.2,.9,0,1.15,.6,.34,.8,.68,1.61,.99,2.42,.12,.3,.28,.4,.61,.4,2.26-.01,4.52-.01,6.78,0,.35,0,.51-.12,.64-.44,.59-1.49,1.21-2.96,1.81-4.44,.05-.13,.08-.26,.13-.43H13.72Zm24.9,21.01c-.17,0-.31,0-.46,0-1.4,.06-2.71-.24-3.94-.91-.35-.19-.71-.38-1.09-.51-1.57-.53-3.12-.51-4.61,.26-1.28,.66-2.58,1.15-4.05,1.16-1.48,.01-2.81-.44-4.11-1.11-1.76-.91-3.57-.91-5.35-.02-1.01,.51-2.03,1-3.18,1.07-.54,.04-1.08,0-1.62,0-.27,1.65-.54,3.21-.79,4.77-.09,.59-.24,1.2-.18,1.78,.15,1.41,1.29,2.35,2.76,2.35,8.26,0,16.51,0,24.77,0,.07,0,.15,0,.22,0,1.55-.1,2.8-1.43,2.59-2.87-.28-1.99-.65-3.97-.98-6ZM12.89,11.1c.45-.22,.84-.4,1.23-.6,2.4-1.21,4.81-1.23,7.17,.03,2.08,1.11,4.11,1.13,6.19,.02,2.47-1.31,4.95-1.26,7.41,.05,.33,.18,.67,.32,1.05,.5l1.73-4.21c-.52,0-.94,0-1.36,0-.95,0-1.33-.24-1.31-.83,.01-.57,.4-.81,1.29-.81,.67,0,1.51,.22,1.97-.1,.48-.33,.61-1.19,.88-1.82,.23-.54,.44-1.09,.68-1.67H9.01c.43,1.06,.87,2.05,1.25,3.07,.15,.42,.37,.52,.79,.52,6.94-.01,13.89-.01,20.83,0,.18,0,.37-.02,.55,.01,.46,.08,.72,.39,.7,.84-.02,.44-.27,.75-.75,.79-.18,.01-.36,0-.55,0-6.65,0-13.31,0-19.96,0h-.72l1.73,4.21Zm.66,1.38c.04,.25,.03,.31,.05,.36,1.32,3.21,2.64,6.42,3.98,9.62,.06,.15,.35,.29,.53,.29,4.19,.02,8.38,0,12.58,.02,.35,0,.51-.12,.63-.44,.94-2.32,1.9-4.64,2.85-6.96,.37-.9,.74-1.81,1.13-2.73-.18-.08-.31-.14-.44-.2-.15-.07-.3-.14-.44-.22-2.17-1.25-4.34-1.27-6.53-.03-.86,.49-1.81,.74-2.8,.81-1.65,.12-3.18-.21-4.61-1.03-1.08-.62-2.27-.88-3.48-.62-1.17,.26-2.3,.73-3.44,1.11Zm34.59,26.07c0-.6,.01-1.2,0-1.8-.11-4.88-4.78-8.21-9.34-6.67q-.99,.33-.83,1.35c.03,.22,.07,.43,.11,.65,.81,4.91,1.63,9.83,2.43,14.74,.07,.4,.24,.53,.64,.52,2.97-.05,5.7-1.96,6.56-4.81,.38-1.27,.43-3.26,.43-3.99ZM11.35,28.57l.61-3.72-2.81,.94,2.2,2.78Z"/><path d="M24.42,41.11c-1.69,0-3.04-1.68-2.45-3.24,.44-1.17,1.15-2.25,1.8-3.34,.28-.47,.99-.5,1.25-.05,.68,1.15,1.44,2.29,1.87,3.54,.52,1.51-.84,3.09-2.47,3.09Zm.07-4.48l-.16,.02c-.25,.52-.54,1.02-.75,1.56-.16,.4-.09,.85,.33,1.03,.29,.12,.71,.13,1,0,.41-.17,.51-.62,.34-1.03-.22-.54-.51-1.06-.77-1.59Z"/></svg>